<svg width="22" height="22" viewBox="0 0 22 22" fill="none" xmlns="http://www.w3.org/2000/svg">
<g clip-path="url(#clip0_1154_116)">
<path d="M15.5833 1.83333H6.41665C3.88534 1.83333 1.83331 3.88536 1.83331 6.41666V15.5833C1.83331 18.1146 3.88534 20.1667 6.41665 20.1667H15.5833C18.1146 20.1667 20.1666 18.1146 20.1666 15.5833V6.41666C20.1666 3.88536 18.1146 1.83333 15.5833 1.83333Z" stroke="black" stroke-width="2" stroke-linecap="round" stroke-linejoin="round"/>
<path d="M14.6667 10.4225C14.7798 11.1854 14.6495 11.9645 14.2943 12.6491C13.9391 13.3337 13.377 13.8888 12.6882 14.2355C11.9993 14.5823 11.2186 14.703 10.4571 14.5804C9.69569 14.4579 8.99228 14.0984 8.44693 13.5531C7.90159 13.0077 7.54208 12.3043 7.41956 11.5429C7.29703 10.7814 7.41772 10.0007 7.76446 9.31184C8.1112 8.62295 8.66633 8.06093 9.3509 7.70572C10.0355 7.35052 10.8146 7.22021 11.5775 7.33334C12.3557 7.44873 13.0761 7.81134 13.6324 8.36762C14.1887 8.92389 14.5513 9.64432 14.6667 10.4225Z" stroke="black" stroke-width="2" stroke-linecap="round" stroke-linejoin="round"/>
<path d="M16.0417 5.95833H16.0517" stroke="black" stroke-width="2" stroke-linecap="round" stroke-linejoin="round"/>
</g>
<defs>
<clipPath id="clip0_1154_116">
<rect width="22" height="22" fill="white"/>
</clipPath>
</defs>
</svg>
